M48
;Layer_Color=6321
;FILE_FORMAT=4:3
METRIC
;TYPE=PLATED
T1F00S00C0.300
T2F00S00C0.762
%
T01
X0031369Y0027940
X0035560
X0039624
X0037044Y0033860
X0035610Y0036325
X0040969Y0033885
X0041394Y0039110
X0041044Y0049310
X0041529Y0059690
X0037719Y0060960
X0033909
X0033274Y0058928
X0032385
X0031496
X0030099Y0060960
X0033960Y0048514
X0039624Y0047625
X0031496Y0042850
X0028394Y0044435
T02
X0027940Y0027940
Y0030480
Y0033020
Y0035560
Y0038100
X0043180
Y0035560
Y0033020
Y0030480
Y0027940
Y0040640
Y0043180
Y0045720
Y0048260
Y0050800
Y0053340
Y0055880
Y0058420
Y0060960
X0027940
Y0058420
Y0055880
Y0053340
Y0050800
Y0048260
Y0045720
Y0043180
Y0040640
M30
