G04*
G04 #@! TF.GenerationSoftware,Altium Limited,CircuitStudio,1.5.1 (13)*
G04*
G04 Layer_Color=15065295*
%FSAX43Y43*%
%MOMM*%
G71*
G01*
G75*
%ADD18C,0.254*%
G36*
X0033441Y0043180D02*
X0033445D01*
X0033454Y0043176D01*
X0033477Y0043167D01*
X0033480D01*
X0033487Y0043163D01*
X0033500Y0043157D01*
X0033513Y0043151D01*
X0034614Y0042503D01*
X0034617D01*
X0034620Y0042496D01*
X0034633Y0042483D01*
X0034636Y0042480D01*
X0034640Y0042474D01*
X0034643Y0042461D01*
X0034646Y0042448D01*
Y0042445D01*
X0034649Y0042432D01*
X0034653Y0042415D01*
X0034656Y0042396D01*
Y0042389D01*
X0034659Y0042373D01*
Y0042351D01*
Y0042321D01*
Y0042318D01*
Y0042312D01*
Y0042292D01*
X0034656Y0042266D01*
X0034653Y0042241D01*
Y0042237D01*
Y0042234D01*
X0034649Y0042221D01*
X0034646Y0042202D01*
X0034643Y0042185D01*
Y0042182D01*
X0034640Y0042172D01*
X0034636Y0042160D01*
X0034630Y0042150D01*
Y0042147D01*
X0034623Y0042143D01*
X0034617Y0042140D01*
X0034607Y0042137D01*
X0033451D01*
Y0041933D01*
Y0041930D01*
X0033448Y0041920D01*
X0033441Y0041907D01*
X0033425Y0041897D01*
X0033422Y0041894D01*
X0033406Y0041888D01*
X0033383Y0041884D01*
X0033351Y0041881D01*
X0033344D01*
X0033325Y0041884D01*
X0033302Y0041888D01*
X0033279Y0041897D01*
X0033276Y0041900D01*
X0033266Y0041907D01*
X0033257Y0041917D01*
X0033254Y0041933D01*
Y0042137D01*
X0032865D01*
X0032852Y0042143D01*
X0032849Y0042150D01*
X0032845Y0042156D01*
X0032839Y0042166D01*
Y0042169D01*
X0032836Y0042176D01*
Y0042185D01*
X0032833Y0042202D01*
Y0042205D01*
Y0042218D01*
X0032829Y0042237D01*
Y0042260D01*
Y0042266D01*
Y0042279D01*
Y0042299D01*
X0032833Y0042318D01*
Y0042321D01*
X0032836Y0042331D01*
Y0042344D01*
X0032839Y0042354D01*
Y0042357D01*
X0032842Y0042360D01*
X0032852Y0042373D01*
X0032858D01*
X0032871Y0042377D01*
X0033254D01*
Y0043121D01*
Y0043125D01*
Y0043131D01*
X0033257Y0043151D01*
X0033260Y0043157D01*
X0033270Y0043170D01*
X0033273D01*
X0033279Y0043173D01*
X0033289Y0043176D01*
X0033302Y0043180D01*
X0033318D01*
X0033334Y0043183D01*
X0033415D01*
X0033441Y0043180D01*
D02*
G37*
G36*
X0033597Y0041696D02*
X0033607Y0041693D01*
X0033616Y0041690D01*
X0033619Y0041687D01*
X0033629Y0041680D01*
X0033636Y0041667D01*
X0033639Y0041651D01*
Y0041068D01*
Y0041065D01*
Y0041062D01*
X0033632Y0041049D01*
Y0041046D01*
X0033629Y0041042D01*
X0033626Y0041039D01*
X0033616Y0041033D01*
X0033613D01*
X0033610Y0041029D01*
X0033600Y0041026D01*
X0033587Y0041023D01*
X0033584D01*
X0033574Y0041020D01*
X0033561Y0041016D01*
X0033513D01*
X0033487Y0041023D01*
X0033477Y0041026D01*
X0033467Y0041029D01*
X0033464Y0041033D01*
X0033458Y0041039D01*
X0033451Y0041052D01*
X0033448Y0041068D01*
Y0041651D01*
Y0041654D01*
X0033451Y0041664D01*
X0033458Y0041677D01*
X0033467Y0041690D01*
X0033471D01*
X0033487Y0041693D01*
X0033509Y0041696D01*
X0033542Y0041700D01*
X0033571D01*
X0033597Y0041696D01*
D02*
G37*
G36*
X0034322Y0044456D02*
X0034332D01*
X0034342Y0044452D01*
X0034345D01*
X0034348Y0044449D01*
X0034361Y0044443D01*
X0034364Y0044439D01*
X0034368Y0044436D01*
X0034377Y0044420D01*
X0034643Y0044005D01*
X0034646Y0044002D01*
X0034649Y0043993D01*
Y0043989D01*
X0034653Y0043986D01*
X0034656Y0043970D01*
Y0043967D01*
X0034659Y0043960D01*
Y0043941D01*
Y0043937D01*
X0034662Y0043928D01*
Y0043915D01*
Y0043899D01*
Y0043892D01*
Y0043879D01*
Y0043863D01*
X0034659Y0043844D01*
Y0043840D01*
X0034656Y0043831D01*
X0034653Y0043818D01*
X0034649Y0043808D01*
Y0043805D01*
X0034646Y0043801D01*
X0034643Y0043795D01*
X0034636Y0043792D01*
X0034633Y0043789D01*
X0034620Y0043785D01*
X0033033D01*
Y0043458D01*
Y0043455D01*
Y0043452D01*
X0033027Y0043439D01*
Y0043436D01*
X0033024Y0043432D01*
X0033007Y0043423D01*
X0033004D01*
X0032998Y0043419D01*
X0032988Y0043416D01*
X0032975Y0043413D01*
X0032972D01*
X0032965Y0043410D01*
X0032949Y0043406D01*
X0032917D01*
X0032904Y0043410D01*
X0032888Y0043413D01*
X0032884D01*
X0032878Y0043416D01*
X0032858Y0043423D01*
X0032852Y0043426D01*
X0032842Y0043439D01*
Y0043445D01*
X0032839Y0043458D01*
Y0044404D01*
Y0044410D01*
X0032842Y0044423D01*
X0032845Y0044426D01*
X0032858Y0044439D01*
X0032862D01*
X0032868Y0044443D01*
X0032888Y0044449D01*
X0032901D01*
X0032913Y0044452D01*
X0032962D01*
X0032975Y0044449D01*
X0032978D01*
X0032988Y0044446D01*
X0033007Y0044439D01*
X0033011D01*
X0033014Y0044436D01*
X0033027Y0044423D01*
Y0044420D01*
X0033030Y0044417D01*
X0033033Y0044404D01*
Y0044025D01*
X0034410D01*
X0034202Y0044375D01*
X0034199Y0044378D01*
X0034193Y0044391D01*
X0034186Y0044404D01*
X0034183Y0044417D01*
Y0044420D01*
Y0044426D01*
Y0044433D01*
X0034189Y0044443D01*
X0034193D01*
X0034196Y0044449D01*
X0034206Y0044452D01*
X0034219Y0044456D01*
X0034235D01*
X0034251Y0044459D01*
X0034316D01*
X0034322Y0044456D01*
D02*
G37*
G36*
X0033785Y0047461D02*
X0033824D01*
X0033911Y0047454D01*
X0033917D01*
X0033930Y0047451D01*
X0033956Y0047448D01*
X0033985Y0047445D01*
X0034021Y0047438D01*
X0034060Y0047429D01*
X0034141Y0047409D01*
X0034147D01*
X0034160Y0047403D01*
X0034180Y0047396D01*
X0034209Y0047386D01*
X0034241Y0047374D01*
X0034274Y0047357D01*
X0034348Y0047322D01*
X0034351Y0047318D01*
X0034364Y0047312D01*
X0034384Y0047299D01*
X0034406Y0047283D01*
X0034432Y0047263D01*
X0034461Y0047241D01*
X0034487Y0047212D01*
X0034517Y0047182D01*
X0034520Y0047179D01*
X0034529Y0047166D01*
X0034542Y0047150D01*
X0034559Y0047127D01*
X0034578Y0047098D01*
X0034598Y0047063D01*
X0034617Y0047027D01*
X0034633Y0046985D01*
X0034636Y0046978D01*
X0034640Y0046965D01*
X0034646Y0046940D01*
X0034656Y0046907D01*
X0034662Y0046868D01*
X0034669Y0046820D01*
X0034672Y0046768D01*
X0034675Y0046713D01*
Y0046710D01*
Y0046703D01*
Y0046693D01*
Y0046680D01*
X0034672Y0046648D01*
X0034669Y0046609D01*
Y0046606D01*
Y0046600D01*
X0034666Y0046590D01*
Y0046577D01*
X0034659Y0046548D01*
X0034649Y0046512D01*
Y0046509D01*
Y0046506D01*
X0034643Y0046486D01*
X0034636Y0046460D01*
X0034627Y0046438D01*
X0034623Y0046431D01*
X0034620Y0046421D01*
X0034614Y0046405D01*
X0034607Y0046396D01*
Y0046392D01*
X0034604Y0046389D01*
X0034591Y0046383D01*
X0034585Y0046379D01*
X0034572Y0046373D01*
X0034568D01*
X0034565Y0046370D01*
X0034542D01*
X0034536Y0046366D01*
X0034487D01*
X0034471Y0046370D01*
X0034461D01*
X0034452Y0046373D01*
X0034442Y0046376D01*
X0034436Y0046379D01*
X0034426Y0046389D01*
X0034423Y0046392D01*
X0034419Y0046408D01*
Y0046412D01*
Y0046418D01*
X0034423Y0046431D01*
X0034429Y0046451D01*
X0034432Y0046454D01*
X0034436Y0046467D01*
X0034442Y0046489D01*
X0034449Y0046515D01*
X0034452Y0046522D01*
X0034455Y0046541D01*
X0034465Y0046567D01*
X0034471Y0046606D01*
Y0046609D01*
X0034474Y0046616D01*
Y0046625D01*
X0034478Y0046642D01*
X0034481Y0046658D01*
Y0046680D01*
X0034484Y0046729D01*
Y0046736D01*
Y0046752D01*
X0034481Y0046774D01*
X0034478Y0046807D01*
X0034471Y0046839D01*
X0034461Y0046878D01*
X0034449Y0046917D01*
X0034429Y0046953D01*
X0034426Y0046956D01*
X0034419Y0046969D01*
X0034406Y0046985D01*
X0034393Y0047008D01*
X0034371Y0047030D01*
X0034348Y0047056D01*
X0034319Y0047082D01*
X0034287Y0047108D01*
X0034283Y0047111D01*
X0034270Y0047118D01*
X0034251Y0047127D01*
X0034225Y0047140D01*
X0034196Y0047153D01*
X0034160Y0047169D01*
X0034118Y0047182D01*
X0034076Y0047195D01*
X0034070D01*
X0034057Y0047199D01*
X0034034Y0047205D01*
X0034002Y0047208D01*
X0033966Y0047215D01*
X0033924Y0047221D01*
X0033879Y0047225D01*
X0033830Y0047228D01*
Y0047225D01*
X0033833Y0047221D01*
X0033843Y0047205D01*
X0033856Y0047179D01*
X0033872Y0047147D01*
Y0047144D01*
X0033875Y0047137D01*
X0033882Y0047127D01*
X0033885Y0047114D01*
X0033898Y0047085D01*
X0033911Y0047046D01*
Y0047043D01*
X0033914Y0047037D01*
X0033917Y0047027D01*
X0033921Y0047011D01*
X0033930Y0046975D01*
X0033937Y0046933D01*
Y0046930D01*
X0033940Y0046923D01*
Y0046910D01*
X0033943Y0046894D01*
X0033947Y0046852D01*
X0033950Y0046804D01*
Y0046800D01*
Y0046797D01*
Y0046778D01*
X0033947Y0046752D01*
X0033943Y0046719D01*
X0033940Y0046680D01*
X0033934Y0046638D01*
X0033921Y0046596D01*
X0033908Y0046557D01*
X0033904Y0046554D01*
X0033901Y0046541D01*
X0033892Y0046522D01*
X0033879Y0046499D01*
X0033862Y0046470D01*
X0033846Y0046444D01*
X0033824Y0046418D01*
X0033798Y0046392D01*
X0033794Y0046389D01*
X0033785Y0046383D01*
X0033768Y0046373D01*
X0033749Y0046357D01*
X0033726Y0046344D01*
X0033697Y0046331D01*
X0033665Y0046315D01*
X0033629Y0046305D01*
X0033626D01*
X0033613Y0046302D01*
X0033594Y0046295D01*
X0033568Y0046289D01*
X0033539Y0046285D01*
X0033503Y0046279D01*
X0033467Y0046276D01*
X0033406D01*
X0033380Y0046279D01*
X0033351D01*
X0033315Y0046285D01*
X0033276Y0046292D01*
X0033234Y0046302D01*
X0033192Y0046315D01*
X0033189D01*
X0033173Y0046321D01*
X0033153Y0046331D01*
X0033127Y0046340D01*
X0033095Y0046357D01*
X0033062Y0046376D01*
X0033030Y0046402D01*
X0032998Y0046428D01*
X0032994Y0046431D01*
X0032985Y0046441D01*
X0032969Y0046457D01*
X0032949Y0046480D01*
X0032926Y0046506D01*
X0032904Y0046541D01*
X0032881Y0046577D01*
X0032862Y0046619D01*
X0032858Y0046625D01*
X0032855Y0046638D01*
X0032845Y0046664D01*
X0032839Y0046697D01*
X0032829Y0046736D01*
X0032820Y0046781D01*
X0032816Y0046833D01*
X0032813Y0046891D01*
Y0046897D01*
Y0046910D01*
Y0046930D01*
X0032816Y0046959D01*
X0032820Y0046988D01*
X0032823Y0047024D01*
X0032839Y0047092D01*
Y0047095D01*
X0032845Y0047105D01*
X0032852Y0047124D01*
X0032862Y0047144D01*
X0032884Y0047192D01*
X0032920Y0047244D01*
X0032923Y0047247D01*
X0032930Y0047254D01*
X0032939Y0047267D01*
X0032956Y0047280D01*
X0032975Y0047296D01*
X0032994Y0047315D01*
X0033046Y0047351D01*
X0033049Y0047354D01*
X0033059Y0047357D01*
X0033075Y0047367D01*
X0033095Y0047374D01*
X0033121Y0047386D01*
X0033150Y0047396D01*
X0033182Y0047409D01*
X0033218Y0047419D01*
X0033221D01*
X0033234Y0047422D01*
X0033254Y0047429D01*
X0033279Y0047432D01*
X0033312Y0047438D01*
X0033347Y0047445D01*
X0033386Y0047451D01*
X0033428Y0047454D01*
X0033448D01*
X0033474Y0047458D01*
X0033503D01*
X0033539Y0047461D01*
X0033581D01*
X0033626Y0047464D01*
X0033749D01*
X0033785Y0047461D01*
D02*
G37*
G36*
X0034322Y0045910D02*
X0034332D01*
X0034342Y0045906D01*
X0034345D01*
X0034348Y0045903D01*
X0034361Y0045897D01*
X0034364Y0045894D01*
X0034368Y0045890D01*
X0034377Y0045874D01*
X0034643Y0045460D01*
X0034646Y0045456D01*
X0034649Y0045447D01*
Y0045443D01*
X0034653Y0045440D01*
X0034656Y0045424D01*
Y0045421D01*
X0034659Y0045414D01*
Y0045395D01*
Y0045392D01*
X0034662Y0045382D01*
Y0045369D01*
Y0045353D01*
Y0045346D01*
Y0045333D01*
Y0045317D01*
X0034659Y0045298D01*
Y0045294D01*
X0034656Y0045285D01*
X0034653Y0045272D01*
X0034649Y0045262D01*
Y0045259D01*
X0034646Y0045256D01*
X0034643Y0045249D01*
X0034636Y0045246D01*
X0034633Y0045243D01*
X0034620Y0045239D01*
X0033033D01*
Y0044912D01*
Y0044909D01*
Y0044906D01*
X0033027Y0044893D01*
Y0044890D01*
X0033024Y0044886D01*
X0033007Y0044877D01*
X0033004D01*
X0032998Y0044873D01*
X0032988Y0044870D01*
X0032975Y0044867D01*
X0032972D01*
X0032965Y0044864D01*
X0032949Y0044860D01*
X0032917D01*
X0032904Y0044864D01*
X0032888Y0044867D01*
X0032884D01*
X0032878Y0044870D01*
X0032858Y0044877D01*
X0032852Y0044880D01*
X0032842Y0044893D01*
Y0044899D01*
X0032839Y0044912D01*
Y0045858D01*
Y0045864D01*
X0032842Y0045877D01*
X0032845Y0045881D01*
X0032858Y0045894D01*
X0032862D01*
X0032868Y0045897D01*
X0032888Y0045903D01*
X0032901D01*
X0032913Y0045906D01*
X0032962D01*
X0032975Y0045903D01*
X0032978D01*
X0032988Y0045900D01*
X0033007Y0045894D01*
X0033011D01*
X0033014Y0045890D01*
X0033027Y0045877D01*
Y0045874D01*
X0033030Y0045871D01*
X0033033Y0045858D01*
Y0045479D01*
X0034410D01*
X0034202Y0045829D01*
X0034199Y0045832D01*
X0034193Y0045845D01*
X0034186Y0045858D01*
X0034183Y0045871D01*
Y0045874D01*
Y0045881D01*
Y0045887D01*
X0034189Y0045897D01*
X0034193D01*
X0034196Y0045903D01*
X0034206Y0045906D01*
X0034219Y0045910D01*
X0034235D01*
X0034251Y0045913D01*
X0034316D01*
X0034322Y0045910D01*
D02*
G37*
G36*
X0033814Y0040816D02*
X0033866D01*
X0033924Y0040812D01*
X0033985Y0040806D01*
X0034053Y0040796D01*
X0034118Y0040786D01*
X0034121D01*
X0034125Y0040783D01*
X0034134D01*
X0034147Y0040780D01*
X0034180Y0040773D01*
X0034219Y0040761D01*
X0034267Y0040748D01*
X0034316Y0040728D01*
X0034364Y0040705D01*
X0034413Y0040680D01*
X0034419Y0040676D01*
X0034432Y0040667D01*
X0034455Y0040647D01*
X0034484Y0040624D01*
X0034517Y0040595D01*
X0034549Y0040563D01*
X0034578Y0040524D01*
X0034607Y0040479D01*
X0034610Y0040472D01*
X0034617Y0040456D01*
X0034630Y0040430D01*
X0034643Y0040395D01*
X0034653Y0040352D01*
X0034666Y0040301D01*
X0034672Y0040242D01*
X0034675Y0040178D01*
Y0040174D01*
Y0040171D01*
Y0040161D01*
Y0040148D01*
X0034672Y0040116D01*
X0034669Y0040074D01*
X0034659Y0040029D01*
X0034649Y0039980D01*
X0034633Y0039931D01*
X0034614Y0039886D01*
X0034610Y0039880D01*
X0034601Y0039867D01*
X0034588Y0039844D01*
X0034568Y0039818D01*
X0034542Y0039789D01*
X0034510Y0039757D01*
X0034474Y0039727D01*
X0034432Y0039698D01*
X0034426Y0039695D01*
X0034413Y0039685D01*
X0034387Y0039676D01*
X0034351Y0039659D01*
X0034309Y0039643D01*
X0034261Y0039627D01*
X0034202Y0039611D01*
X0034141Y0039598D01*
X0034134D01*
X0034125Y0039595D01*
X0034112Y0039591D01*
X0034096D01*
X0034076Y0039588D01*
X0034028Y0039582D01*
X0033969Y0039575D01*
X0033901Y0039572D01*
X0033827Y0039565D01*
X0033694D01*
X0033671Y0039569D01*
X0033619D01*
X0033561Y0039575D01*
X0033500Y0039582D01*
X0033432Y0039588D01*
X0033367Y0039601D01*
X0033360D01*
X0033351Y0039604D01*
X0033338Y0039608D01*
X0033305Y0039614D01*
X0033266Y0039627D01*
X0033218Y0039643D01*
X0033169Y0039663D01*
X0033118Y0039685D01*
X0033069Y0039711D01*
X0033062Y0039714D01*
X0033049Y0039724D01*
X0033027Y0039740D01*
X0032998Y0039763D01*
X0032969Y0039792D01*
X0032936Y0039825D01*
X0032907Y0039863D01*
X0032878Y0039909D01*
X0032875Y0039915D01*
X0032868Y0039931D01*
X0032858Y0039957D01*
X0032845Y0039993D01*
X0032833Y0040038D01*
X0032823Y0040090D01*
X0032816Y0040148D01*
X0032813Y0040213D01*
Y0040216D01*
Y0040220D01*
Y0040229D01*
Y0040242D01*
X0032816Y0040275D01*
X0032820Y0040314D01*
X0032826Y0040359D01*
X0032839Y0040408D01*
X0032852Y0040456D01*
X0032871Y0040501D01*
X0032875Y0040508D01*
X0032884Y0040521D01*
X0032897Y0040544D01*
X0032917Y0040569D01*
X0032943Y0040599D01*
X0032972Y0040631D01*
X0033007Y0040660D01*
X0033049Y0040689D01*
X0033056Y0040693D01*
X0033072Y0040702D01*
X0033098Y0040712D01*
X0033130Y0040728D01*
X0033173Y0040744D01*
X0033224Y0040761D01*
X0033279Y0040777D01*
X0033341Y0040790D01*
X0033347D01*
X0033357Y0040793D01*
X0033373D01*
X0033390Y0040796D01*
X0033409Y0040799D01*
X0033458Y0040803D01*
X0033516Y0040809D01*
X0033584Y0040816D01*
X0033658Y0040819D01*
X0033791D01*
X0033814Y0040816D01*
D02*
G37*
G36*
X0030310Y0044647D02*
X0030333Y0044641D01*
X0030336D01*
X0030343Y0044637D01*
X0030365Y0044624D01*
X0030368Y0044621D01*
X0030375Y0044615D01*
X0030388Y0044605D01*
X0030401Y0044595D01*
X0030773Y0044232D01*
X0030780Y0044226D01*
X0030796Y0044213D01*
X0030819Y0044187D01*
X0030848Y0044161D01*
X0030883Y0044129D01*
X0030922Y0044093D01*
X0030961Y0044061D01*
X0031000Y0044032D01*
X0031003Y0044028D01*
X0031016Y0044019D01*
X0031039Y0044006D01*
X0031062Y0043986D01*
X0031091Y0043970D01*
X0031123Y0043951D01*
X0031155Y0043931D01*
X0031188Y0043915D01*
X0031191Y0043912D01*
X0031201Y0043909D01*
X0031217Y0043902D01*
X0031240Y0043892D01*
X0031288Y0043873D01*
X0031340Y0043860D01*
X0031343D01*
X0031353Y0043857D01*
X0031366Y0043854D01*
X0031382Y0043850D01*
X0031424Y0043847D01*
X0031470Y0043844D01*
X0031492D01*
X0031508Y0043847D01*
X0031544Y0043854D01*
X0031583Y0043867D01*
X0031586D01*
X0031593Y0043870D01*
X0031602Y0043873D01*
X0031615Y0043880D01*
X0031644Y0043899D01*
X0031677Y0043925D01*
X0031680Y0043928D01*
X0031683Y0043931D01*
X0031699Y0043951D01*
X0031722Y0043983D01*
X0031742Y0044022D01*
Y0044025D01*
X0031745Y0044032D01*
X0031751Y0044045D01*
X0031755Y0044061D01*
X0031761Y0044080D01*
X0031764Y0044103D01*
X0031767Y0044155D01*
Y0044158D01*
Y0044171D01*
Y0044187D01*
X0031764Y0044207D01*
X0031761Y0044232D01*
X0031758Y0044258D01*
X0031742Y0044313D01*
Y0044317D01*
X0031738Y0044326D01*
X0031732Y0044339D01*
X0031725Y0044356D01*
X0031709Y0044394D01*
X0031690Y0044437D01*
Y0044440D01*
X0031687Y0044446D01*
X0031680Y0044456D01*
X0031674Y0044466D01*
X0031654Y0044495D01*
X0031638Y0044524D01*
X0031635Y0044530D01*
X0031628Y0044543D01*
X0031619Y0044563D01*
X0031615Y0044579D01*
Y0044585D01*
X0031619Y0044598D01*
X0031625Y0044602D01*
X0031638Y0044611D01*
X0031641D01*
X0031648Y0044615D01*
X0031657D01*
X0031670Y0044618D01*
X0031767D01*
X0031784Y0044615D01*
X0031787D01*
X0031790Y0044611D01*
X0031806Y0044605D01*
X0031810D01*
X0031813Y0044598D01*
X0031819Y0044592D01*
X0031829Y0044582D01*
X0031832Y0044579D01*
X0031842Y0044569D01*
X0031855Y0044550D01*
X0031871Y0044524D01*
Y0044521D01*
X0031874Y0044517D01*
X0031881Y0044508D01*
X0031887Y0044495D01*
X0031904Y0044462D01*
X0031920Y0044420D01*
Y0044417D01*
X0031923Y0044407D01*
X0031929Y0044394D01*
X0031936Y0044378D01*
X0031942Y0044359D01*
X0031949Y0044333D01*
X0031962Y0044281D01*
Y0044278D01*
X0031965Y0044268D01*
X0031968Y0044252D01*
X0031972Y0044232D01*
X0031975Y0044210D01*
X0031978Y0044184D01*
X0031981Y0044126D01*
Y0044119D01*
Y0044103D01*
X0031978Y0044077D01*
Y0044048D01*
X0031972Y0044012D01*
X0031965Y0043973D01*
X0031955Y0043935D01*
X0031942Y0043896D01*
Y0043892D01*
X0031936Y0043880D01*
X0031926Y0043860D01*
X0031916Y0043837D01*
X0031884Y0043782D01*
X0031865Y0043756D01*
X0031842Y0043731D01*
X0031839Y0043727D01*
X0031829Y0043721D01*
X0031816Y0043708D01*
X0031800Y0043692D01*
X0031777Y0043675D01*
X0031751Y0043659D01*
X0031722Y0043643D01*
X0031690Y0043630D01*
X0031687D01*
X0031677Y0043624D01*
X0031657Y0043620D01*
X0031635Y0043614D01*
X0031609Y0043607D01*
X0031576Y0043604D01*
X0031508Y0043598D01*
X0031476D01*
X0031457Y0043601D01*
X0031431D01*
X0031402Y0043604D01*
X0031337Y0043614D01*
X0031334D01*
X0031321Y0043617D01*
X0031304Y0043620D01*
X0031282Y0043627D01*
X0031253Y0043637D01*
X0031220Y0043650D01*
X0031185Y0043663D01*
X0031149Y0043682D01*
X0031146Y0043685D01*
X0031133Y0043692D01*
X0031113Y0043701D01*
X0031084Y0043718D01*
X0031052Y0043737D01*
X0031016Y0043763D01*
X0030974Y0043792D01*
X0030929Y0043824D01*
X0030922Y0043828D01*
X0030906Y0043841D01*
X0030880Y0043863D01*
X0030848Y0043889D01*
X0030806Y0043928D01*
X0030757Y0043970D01*
X0030705Y0044019D01*
X0030647Y0044074D01*
X0030349Y0044359D01*
Y0043572D01*
Y0043569D01*
Y0043565D01*
X0030343Y0043552D01*
Y0043549D01*
X0030339Y0043546D01*
X0030323Y0043533D01*
X0030320D01*
X0030313Y0043530D01*
X0030304Y0043527D01*
X0030291Y0043523D01*
X0030288D01*
X0030278Y0043520D01*
X0030265Y0043517D01*
X0030232D01*
X0030219Y0043520D01*
X0030203Y0043523D01*
X0030200D01*
X0030190Y0043527D01*
X0030168Y0043533D01*
X0030164D01*
X0030161Y0043536D01*
X0030148Y0043549D01*
Y0043556D01*
X0030145Y0043572D01*
Y0044573D01*
Y0044576D01*
Y0044585D01*
X0030148Y0044608D01*
Y0044611D01*
X0030151Y0044615D01*
X0030164Y0044631D01*
X0030168D01*
X0030171Y0044637D01*
X0030181Y0044641D01*
X0030194Y0044647D01*
X0030210D01*
X0030226Y0044650D01*
X0030300D01*
X0030310Y0044647D01*
D02*
G37*
G36*
X0031120Y0043251D02*
X0031172D01*
X0031230Y0043248D01*
X0031291Y0043242D01*
X0031359Y0043232D01*
X0031424Y0043222D01*
X0031427D01*
X0031431Y0043219D01*
X0031440D01*
X0031453Y0043216D01*
X0031486Y0043209D01*
X0031525Y0043196D01*
X0031573Y0043183D01*
X0031622Y0043164D01*
X0031670Y0043141D01*
X0031719Y0043115D01*
X0031725Y0043112D01*
X0031738Y0043102D01*
X0031761Y0043083D01*
X0031790Y0043060D01*
X0031823Y0043031D01*
X0031855Y0042999D01*
X0031884Y0042960D01*
X0031913Y0042914D01*
X0031916Y0042908D01*
X0031923Y0042892D01*
X0031936Y0042866D01*
X0031949Y0042830D01*
X0031959Y0042788D01*
X0031972Y0042736D01*
X0031978Y0042678D01*
X0031981Y0042613D01*
Y0042610D01*
Y0042607D01*
Y0042597D01*
Y0042584D01*
X0031978Y0042552D01*
X0031975Y0042510D01*
X0031965Y0042464D01*
X0031955Y0042416D01*
X0031939Y0042367D01*
X0031920Y0042322D01*
X0031916Y0042315D01*
X0031907Y0042302D01*
X0031894Y0042280D01*
X0031874Y0042254D01*
X0031848Y0042225D01*
X0031816Y0042192D01*
X0031780Y0042163D01*
X0031738Y0042134D01*
X0031732Y0042131D01*
X0031719Y0042121D01*
X0031693Y0042111D01*
X0031657Y0042095D01*
X0031615Y0042079D01*
X0031567Y0042063D01*
X0031508Y0042047D01*
X0031447Y0042034D01*
X0031440D01*
X0031431Y0042030D01*
X0031418Y0042027D01*
X0031402D01*
X0031382Y0042024D01*
X0031334Y0042017D01*
X0031275Y0042011D01*
X0031207Y0042008D01*
X0031133Y0042001D01*
X0031000D01*
X0030977Y0042004D01*
X0030925D01*
X0030867Y0042011D01*
X0030806Y0042017D01*
X0030738Y0042024D01*
X0030673Y0042037D01*
X0030666D01*
X0030657Y0042040D01*
X0030644Y0042043D01*
X0030611Y0042050D01*
X0030572Y0042063D01*
X0030524Y0042079D01*
X0030475Y0042098D01*
X0030424Y0042121D01*
X0030375Y0042147D01*
X0030368Y0042150D01*
X0030355Y0042160D01*
X0030333Y0042176D01*
X0030304Y0042199D01*
X0030275Y0042228D01*
X0030242Y0042260D01*
X0030213Y0042299D01*
X0030184Y0042344D01*
X0030181Y0042351D01*
X0030174Y0042367D01*
X0030164Y0042393D01*
X0030151Y0042429D01*
X0030139Y0042474D01*
X0030129Y0042526D01*
X0030122Y0042584D01*
X0030119Y0042649D01*
Y0042652D01*
Y0042655D01*
Y0042665D01*
Y0042678D01*
X0030122Y0042710D01*
X0030126Y0042749D01*
X0030132Y0042795D01*
X0030145Y0042843D01*
X0030158Y0042892D01*
X0030177Y0042937D01*
X0030181Y0042944D01*
X0030190Y0042957D01*
X0030203Y0042979D01*
X0030223Y0043005D01*
X0030249Y0043034D01*
X0030278Y0043067D01*
X0030313Y0043096D01*
X0030355Y0043125D01*
X0030362Y0043128D01*
X0030378Y0043138D01*
X0030404Y0043148D01*
X0030436Y0043164D01*
X0030479Y0043180D01*
X0030530Y0043196D01*
X0030585Y0043212D01*
X0030647Y0043225D01*
X0030653D01*
X0030663Y0043229D01*
X0030679D01*
X0030696Y0043232D01*
X0030715Y0043235D01*
X0030764Y0043238D01*
X0030822Y0043245D01*
X0030890Y0043251D01*
X0030964Y0043254D01*
X0031097D01*
X0031120Y0043251D01*
D02*
G37*
G36*
X0031894Y0046121D02*
X0031897D01*
X0031907Y0046117D01*
X0031926Y0046111D01*
X0031929D01*
X0031936Y0046108D01*
X0031942Y0046101D01*
X0031949Y0046095D01*
Y0046091D01*
X0031952Y0046088D01*
X0031955Y0046072D01*
Y0045016D01*
Y0045013D01*
Y0045003D01*
X0031949Y0044984D01*
Y0044981D01*
X0031946Y0044974D01*
X0031942Y0044968D01*
X0031933Y0044961D01*
X0031929Y0044958D01*
X0031923Y0044955D01*
X0031913Y0044951D01*
X0031900Y0044948D01*
X0031897D01*
X0031887Y0044945D01*
X0031871Y0044942D01*
X0031819D01*
X0031803Y0044945D01*
X0031800D01*
X0031790Y0044948D01*
X0031777D01*
X0031764Y0044951D01*
X0031761D01*
X0031755Y0044955D01*
X0031742Y0044958D01*
X0031729Y0044961D01*
X0031725D01*
X0031719Y0044964D01*
X0031706Y0044968D01*
X0031693Y0044974D01*
X0030187Y0045628D01*
X0030184D01*
X0030177Y0045632D01*
X0030161Y0045648D01*
Y0045651D01*
X0030155Y0045654D01*
X0030145Y0045674D01*
Y0045677D01*
X0030142Y0045683D01*
Y0045700D01*
X0030139Y0045716D01*
Y0045719D01*
Y0045732D01*
X0030135Y0045751D01*
Y0045774D01*
Y0045777D01*
Y0045781D01*
Y0045803D01*
X0030139Y0045826D01*
X0030142Y0045852D01*
Y0045855D01*
X0030145Y0045865D01*
X0030148Y0045878D01*
X0030151Y0045891D01*
X0030155D01*
X0030158Y0045894D01*
X0030164Y0045897D01*
X0030174Y0045900D01*
X0030177D01*
X0030184Y0045897D01*
X0030194Y0045894D01*
X0030207Y0045887D01*
X0031745Y0045201D01*
Y0046072D01*
Y0046075D01*
X0031748Y0046085D01*
X0031755Y0046098D01*
X0031771Y0046111D01*
X0031777Y0046114D01*
X0031790Y0046117D01*
X0031816Y0046121D01*
X0031848Y0046124D01*
X0031878D01*
X0031894Y0046121D01*
D02*
G37*
G36*
X0034322Y0039216D02*
X0034332D01*
X0034342Y0039213D01*
X0034345D01*
X0034348Y0039209D01*
X0034361Y0039203D01*
X0034364Y0039200D01*
X0034368Y0039196D01*
X0034377Y0039180D01*
X0034643Y0038766D01*
X0034646Y0038762D01*
X0034649Y0038753D01*
Y0038749D01*
X0034653Y0038746D01*
X0034656Y0038730D01*
Y0038727D01*
X0034659Y0038720D01*
Y0038701D01*
Y0038698D01*
X0034662Y0038688D01*
Y0038675D01*
Y0038659D01*
Y0038652D01*
Y0038639D01*
Y0038623D01*
X0034659Y0038604D01*
Y0038600D01*
X0034656Y0038591D01*
X0034653Y0038578D01*
X0034649Y0038568D01*
Y0038565D01*
X0034646Y0038562D01*
X0034643Y0038555D01*
X0034636Y0038552D01*
X0034633Y0038549D01*
X0034620Y0038545D01*
X0033033D01*
Y0038218D01*
Y0038215D01*
Y0038212D01*
X0033027Y0038199D01*
Y0038196D01*
X0033024Y0038192D01*
X0033007Y0038183D01*
X0033004D01*
X0032998Y0038179D01*
X0032988Y0038176D01*
X0032975Y0038173D01*
X0032972D01*
X0032965Y0038170D01*
X0032949Y0038166D01*
X0032917D01*
X0032904Y0038170D01*
X0032888Y0038173D01*
X0032884D01*
X0032878Y0038176D01*
X0032858Y0038183D01*
X0032852Y0038186D01*
X0032842Y0038199D01*
Y0038205D01*
X0032839Y0038218D01*
Y0039164D01*
Y0039170D01*
X0032842Y0039183D01*
X0032845Y0039187D01*
X0032858Y0039200D01*
X0032862D01*
X0032868Y0039203D01*
X0032888Y0039209D01*
X0032901D01*
X0032913Y0039213D01*
X0032962D01*
X0032975Y0039209D01*
X0032978D01*
X0032988Y0039206D01*
X0033007Y0039200D01*
X0033011D01*
X0033014Y0039196D01*
X0033027Y0039183D01*
Y0039180D01*
X0033030Y0039177D01*
X0033033Y0039164D01*
Y0038785D01*
X0034410D01*
X0034202Y0039135D01*
X0034199Y0039138D01*
X0034193Y0039151D01*
X0034186Y0039164D01*
X0034183Y0039177D01*
Y0039180D01*
Y0039187D01*
Y0039193D01*
X0034189Y0039203D01*
X0034193D01*
X0034196Y0039209D01*
X0034206Y0039213D01*
X0034219Y0039216D01*
X0034235D01*
X0034251Y0039219D01*
X0034316D01*
X0034322Y0039216D01*
D02*
G37*
G36*
X0031628Y0047468D02*
X0031638D01*
X0031648Y0047465D01*
X0031651D01*
X0031654Y0047461D01*
X0031667Y0047455D01*
X0031670Y0047452D01*
X0031674Y0047448D01*
X0031683Y0047432D01*
X0031949Y0047018D01*
X0031952Y0047014D01*
X0031955Y0047005D01*
Y0047001D01*
X0031959Y0046998D01*
X0031962Y0046982D01*
Y0046979D01*
X0031965Y0046972D01*
Y0046953D01*
Y0046950D01*
X0031968Y0046940D01*
Y0046927D01*
Y0046911D01*
Y0046904D01*
Y0046891D01*
Y0046875D01*
X0031965Y0046856D01*
Y0046852D01*
X0031962Y0046843D01*
X0031959Y0046830D01*
X0031955Y0046820D01*
Y0046817D01*
X0031952Y0046814D01*
X0031949Y0046807D01*
X0031942Y0046804D01*
X0031939Y0046801D01*
X0031926Y0046797D01*
X0030339D01*
Y0046470D01*
Y0046467D01*
Y0046464D01*
X0030333Y0046451D01*
Y0046448D01*
X0030330Y0046444D01*
X0030313Y0046435D01*
X0030310D01*
X0030304Y0046431D01*
X0030294Y0046428D01*
X0030281Y0046425D01*
X0030278D01*
X0030271Y0046422D01*
X0030255Y0046418D01*
X0030223D01*
X0030210Y0046422D01*
X0030194Y0046425D01*
X0030190D01*
X0030184Y0046428D01*
X0030164Y0046435D01*
X0030158Y0046438D01*
X0030148Y0046451D01*
Y0046457D01*
X0030145Y0046470D01*
Y0047416D01*
Y0047422D01*
X0030148Y0047435D01*
X0030151Y0047439D01*
X0030164Y0047452D01*
X0030168D01*
X0030174Y0047455D01*
X0030194Y0047461D01*
X0030207D01*
X0030219Y0047465D01*
X0030268D01*
X0030281Y0047461D01*
X0030284D01*
X0030294Y0047458D01*
X0030313Y0047452D01*
X0030317D01*
X0030320Y0047448D01*
X0030333Y0047435D01*
Y0047432D01*
X0030336Y0047429D01*
X0030339Y0047416D01*
Y0047037D01*
X0031716D01*
X0031508Y0047387D01*
X0031505Y0047390D01*
X0031499Y0047403D01*
X0031492Y0047416D01*
X0031489Y0047429D01*
Y0047432D01*
Y0047439D01*
Y0047445D01*
X0031495Y0047455D01*
X0031499D01*
X0031502Y0047461D01*
X0031512Y0047465D01*
X0031525Y0047468D01*
X0031541D01*
X0031557Y0047471D01*
X0031622D01*
X0031628Y0047468D01*
D02*
G37*
G36*
X0038920Y0037500D02*
X0037720Y0037500D01*
X0037720Y0041900D01*
X0038920Y0041900D01*
X0038920Y0037500D01*
D02*
G37*
G36*
X0040520Y0048100D02*
X0040530Y0048000D01*
Y0048000D01*
X0040492Y0047713D01*
X0040381Y0047445D01*
X0040205Y0047216D01*
X0039975Y0047039D01*
X0039707Y0046928D01*
X0039420Y0046891D01*
X0039420D01*
Y0046900D01*
X0036120Y0046900D01*
Y0048100D01*
X0040520Y0048100D01*
D02*
G37*
G36*
X0038751Y0046568D02*
X0039166Y0046442D01*
X0039548Y0046238D01*
X0039883Y0045963D01*
X0040158Y0045628D01*
X0040362Y0045246D01*
X0040488Y0044831D01*
X0040531Y0044400D01*
X0040488Y0043969D01*
X0040362Y0043554D01*
X0040158Y0043172D01*
X0039883Y0042837D01*
X0039548Y0042562D01*
X0039166Y0042358D01*
X0038751Y0042232D01*
X0038320Y0042189D01*
X0037889Y0042232D01*
X0037474Y0042358D01*
X0037092Y0042562D01*
X0036757Y0042837D01*
X0036482Y0043172D01*
X0036278Y0043554D01*
X0036152Y0043969D01*
X0036109Y0044400D01*
X0036152Y0044831D01*
X0036278Y0045246D01*
X0036482Y0045628D01*
X0036757Y0045963D01*
X0037092Y0046238D01*
X0037474Y0046442D01*
X0037889Y0046568D01*
X0038320Y0046611D01*
X0038751Y0046568D01*
D02*
G37*
G36*
X0037320Y0037500D02*
X0037220Y0037491D01*
X0037220D01*
X0036933Y0037528D01*
X0036665Y0037639D01*
X0036436Y0037816D01*
X0036259Y0038045D01*
X0036148Y0038313D01*
X0036111Y0038600D01*
Y0038600D01*
X0036120Y0038600D01*
X0036120Y0041900D01*
X0037320D01*
X0037320Y0037500D01*
D02*
G37*
G36*
X0039707Y0041872D02*
X0039975Y0041761D01*
X0040205Y0041585D01*
X0040381Y0041355D01*
X0040492Y0041087D01*
X0040530Y0040800D01*
Y0040800D01*
X0040520D01*
X0040520Y0037500D01*
X0039320D01*
X0039320Y0041900D01*
X0039420Y0041910D01*
X0039420D01*
X0039707Y0041872D01*
D02*
G37*
G36*
X0040520Y0051300D02*
X0040520Y0050100D01*
X0036120Y0050100D01*
X0036120Y0051300D01*
X0040520Y0051300D01*
D02*
G37*
G36*
X0033814Y0048964D02*
X0033866D01*
X0033924Y0048960D01*
X0033985Y0048954D01*
X0034053Y0048944D01*
X0034118Y0048934D01*
X0034121D01*
X0034125Y0048931D01*
X0034134D01*
X0034147Y0048928D01*
X0034180Y0048922D01*
X0034219Y0048909D01*
X0034267Y0048896D01*
X0034316Y0048876D01*
X0034364Y0048854D01*
X0034413Y0048828D01*
X0034419Y0048824D01*
X0034432Y0048815D01*
X0034455Y0048795D01*
X0034484Y0048773D01*
X0034517Y0048743D01*
X0034549Y0048711D01*
X0034578Y0048672D01*
X0034607Y0048627D01*
X0034610Y0048620D01*
X0034617Y0048604D01*
X0034630Y0048578D01*
X0034643Y0048543D01*
X0034653Y0048501D01*
X0034666Y0048449D01*
X0034672Y0048390D01*
X0034675Y0048326D01*
Y0048322D01*
Y0048319D01*
Y0048309D01*
Y0048297D01*
X0034672Y0048264D01*
X0034669Y0048222D01*
X0034659Y0048177D01*
X0034649Y0048128D01*
X0034633Y0048080D01*
X0034614Y0048034D01*
X0034610Y0048028D01*
X0034601Y0048015D01*
X0034588Y0047992D01*
X0034568Y0047966D01*
X0034542Y0047937D01*
X0034510Y0047905D01*
X0034474Y0047875D01*
X0034432Y0047846D01*
X0034426Y0047843D01*
X0034413Y0047833D01*
X0034387Y0047824D01*
X0034351Y0047807D01*
X0034309Y0047791D01*
X0034261Y0047775D01*
X0034202Y0047759D01*
X0034141Y0047746D01*
X0034134D01*
X0034125Y0047743D01*
X0034112Y0047739D01*
X0034096D01*
X0034076Y0047736D01*
X0034028Y0047730D01*
X0033969Y0047723D01*
X0033901Y0047720D01*
X0033827Y0047714D01*
X0033694D01*
X0033671Y0047717D01*
X0033619D01*
X0033561Y0047723D01*
X0033500Y0047730D01*
X0033432Y0047736D01*
X0033367Y0047749D01*
X0033360D01*
X0033351Y0047752D01*
X0033338Y0047756D01*
X0033305Y0047762D01*
X0033266Y0047775D01*
X0033218Y0047791D01*
X0033169Y0047811D01*
X0033118Y0047833D01*
X0033069Y0047859D01*
X0033062Y0047863D01*
X0033049Y0047872D01*
X0033027Y0047888D01*
X0032998Y0047911D01*
X0032969Y0047940D01*
X0032936Y0047973D01*
X0032907Y0048012D01*
X0032878Y0048057D01*
X0032875Y0048063D01*
X0032868Y0048080D01*
X0032858Y0048105D01*
X0032845Y0048141D01*
X0032833Y0048186D01*
X0032823Y0048238D01*
X0032816Y0048297D01*
X0032813Y0048361D01*
Y0048365D01*
Y0048368D01*
Y0048377D01*
Y0048390D01*
X0032816Y0048423D01*
X0032820Y0048462D01*
X0032826Y0048507D01*
X0032839Y0048556D01*
X0032852Y0048604D01*
X0032871Y0048649D01*
X0032875Y0048656D01*
X0032884Y0048669D01*
X0032897Y0048692D01*
X0032917Y0048717D01*
X0032943Y0048747D01*
X0032972Y0048779D01*
X0033007Y0048808D01*
X0033049Y0048837D01*
X0033056Y0048841D01*
X0033072Y0048850D01*
X0033098Y0048860D01*
X0033130Y0048876D01*
X0033173Y0048892D01*
X0033224Y0048909D01*
X0033279Y0048925D01*
X0033341Y0048938D01*
X0033347D01*
X0033357Y0048941D01*
X0033373D01*
X0033390Y0048944D01*
X0033409Y0048947D01*
X0033458Y0048951D01*
X0033516Y0048957D01*
X0033584Y0048964D01*
X0033658Y0048967D01*
X0033791D01*
X0033814Y0048964D01*
D02*
G37*
G36*
X0040520Y0049700D02*
X0040530Y0049600D01*
Y0049600D01*
X0040492Y0049313D01*
X0040381Y0049045D01*
X0040205Y0048816D01*
X0039975Y0048639D01*
X0039707Y0048528D01*
X0039420Y0048491D01*
X0039420D01*
Y0048500D01*
X0036120Y0048500D01*
Y0049700D01*
X0040520Y0049700D01*
D02*
G37*
G36*
X0034115Y0050405D02*
X0034147D01*
X0034180Y0050402D01*
X0034219Y0050395D01*
X0034300Y0050376D01*
X0034306Y0050372D01*
X0034319Y0050369D01*
X0034338Y0050359D01*
X0034364Y0050350D01*
X0034393Y0050334D01*
X0034426Y0050314D01*
X0034458Y0050291D01*
X0034491Y0050266D01*
X0034494Y0050262D01*
X0034504Y0050253D01*
X0034520Y0050236D01*
X0034539Y0050214D01*
X0034559Y0050188D01*
X0034581Y0050155D01*
X0034604Y0050120D01*
X0034623Y0050078D01*
X0034627Y0050071D01*
X0034633Y0050058D01*
X0034640Y0050032D01*
X0034649Y0050000D01*
X0034659Y0049958D01*
X0034669Y0049913D01*
X0034672Y0049861D01*
X0034675Y0049802D01*
Y0049796D01*
Y0049783D01*
Y0049760D01*
X0034672Y0049734D01*
X0034669Y0049702D01*
X0034662Y0049670D01*
X0034646Y0049602D01*
Y0049598D01*
X0034640Y0049585D01*
X0034633Y0049569D01*
X0034623Y0049550D01*
X0034598Y0049501D01*
X0034562Y0049449D01*
X0034559Y0049446D01*
X0034552Y0049440D01*
X0034542Y0049427D01*
X0034526Y0049411D01*
X0034507Y0049394D01*
X0034484Y0049378D01*
X0034432Y0049343D01*
X0034429Y0049339D01*
X0034419Y0049336D01*
X0034403Y0049326D01*
X0034384Y0049317D01*
X0034358Y0049304D01*
X0034329Y0049294D01*
X0034296Y0049281D01*
X0034261Y0049271D01*
X0034257D01*
X0034245Y0049265D01*
X0034225Y0049262D01*
X0034199Y0049255D01*
X0034167Y0049249D01*
X0034131Y0049242D01*
X0034092Y0049236D01*
X0034050Y0049229D01*
X0034044D01*
X0034031Y0049226D01*
X0034008D01*
X0033979Y0049223D01*
X0033943Y0049219D01*
X0033901D01*
X0033859Y0049216D01*
X0033772D01*
X0033739Y0049219D01*
X0033704D01*
X0033665Y0049223D01*
X0033577Y0049232D01*
X0033571D01*
X0033558Y0049236D01*
X0033532Y0049239D01*
X0033503Y0049242D01*
X0033467Y0049249D01*
X0033428Y0049258D01*
X0033344Y0049281D01*
X0033341D01*
X0033325Y0049287D01*
X0033305Y0049294D01*
X0033276Y0049304D01*
X0033244Y0049317D01*
X0033211Y0049333D01*
X0033137Y0049372D01*
X0033134Y0049375D01*
X0033121Y0049381D01*
X0033101Y0049394D01*
X0033079Y0049411D01*
X0033053Y0049430D01*
X0033024Y0049456D01*
X0032994Y0049482D01*
X0032965Y0049514D01*
X0032962Y0049517D01*
X0032952Y0049530D01*
X0032939Y0049547D01*
X0032923Y0049572D01*
X0032907Y0049602D01*
X0032888Y0049637D01*
X0032868Y0049676D01*
X0032852Y0049718D01*
Y0049725D01*
X0032845Y0049738D01*
X0032839Y0049764D01*
X0032833Y0049796D01*
X0032826Y0049835D01*
X0032820Y0049883D01*
X0032816Y0049935D01*
X0032813Y0049990D01*
Y0049993D01*
Y0050000D01*
Y0050013D01*
Y0050029D01*
X0032816Y0050068D01*
X0032823Y0050110D01*
Y0050113D01*
Y0050120D01*
X0032826Y0050129D01*
Y0050142D01*
X0032833Y0050175D01*
X0032839Y0050210D01*
Y0050214D01*
X0032842Y0050217D01*
X0032845Y0050236D01*
X0032852Y0050262D01*
X0032862Y0050288D01*
X0032865Y0050291D01*
X0032871Y0050304D01*
X0032878Y0050321D01*
X0032888Y0050334D01*
X0032891Y0050337D01*
X0032897Y0050340D01*
X0032907Y0050346D01*
X0032920Y0050353D01*
X0032936D01*
X0032956Y0050356D01*
X0033030D01*
X0033037Y0050353D01*
X0033046D01*
X0033056Y0050350D01*
X0033059D01*
X0033062Y0050346D01*
X0033069Y0050340D01*
Y0050337D01*
X0033072Y0050334D01*
Y0050317D01*
Y0050314D01*
Y0050308D01*
X0033069Y0050295D01*
X0033062Y0050275D01*
Y0050269D01*
X0033056Y0050256D01*
X0033049Y0050233D01*
X0033040Y0050204D01*
Y0050201D01*
X0033037Y0050197D01*
Y0050188D01*
X0033033Y0050175D01*
X0033024Y0050146D01*
X0033017Y0050107D01*
Y0050104D01*
Y0050097D01*
X0033014Y0050084D01*
Y0050068D01*
X0033011Y0050049D01*
Y0050026D01*
X0033007Y0049977D01*
Y0049971D01*
Y0049955D01*
X0033011Y0049929D01*
X0033014Y0049896D01*
X0033020Y0049861D01*
X0033030Y0049822D01*
X0033043Y0049783D01*
X0033059Y0049744D01*
X0033062Y0049741D01*
X0033069Y0049728D01*
X0033082Y0049708D01*
X0033095Y0049689D01*
X0033118Y0049663D01*
X0033140Y0049637D01*
X0033166Y0049611D01*
X0033198Y0049585D01*
X0033202Y0049582D01*
X0033215Y0049576D01*
X0033231Y0049563D01*
X0033257Y0049550D01*
X0033286Y0049537D01*
X0033322Y0049521D01*
X0033360Y0049508D01*
X0033403Y0049495D01*
X0033409D01*
X0033422Y0049488D01*
X0033448Y0049485D01*
X0033477Y0049479D01*
X0033513Y0049472D01*
X0033555Y0049466D01*
X0033600Y0049462D01*
X0033649Y0049459D01*
X0033645Y0049462D01*
X0033642Y0049472D01*
X0033632Y0049488D01*
X0033623Y0049508D01*
X0033610Y0049537D01*
X0033597Y0049566D01*
X0033584Y0049598D01*
X0033571Y0049637D01*
Y0049640D01*
X0033564Y0049657D01*
X0033561Y0049676D01*
X0033555Y0049705D01*
X0033548Y0049741D01*
X0033545Y0049780D01*
X0033539Y0049825D01*
Y0049874D01*
Y0049877D01*
Y0049880D01*
Y0049900D01*
X0033542Y0049929D01*
X0033545Y0049961D01*
X0033548Y0050003D01*
X0033555Y0050045D01*
X0033564Y0050087D01*
X0033577Y0050129D01*
X0033581Y0050133D01*
X0033584Y0050146D01*
X0033594Y0050165D01*
X0033607Y0050188D01*
X0033623Y0050214D01*
X0033642Y0050243D01*
X0033665Y0050269D01*
X0033691Y0050295D01*
X0033694Y0050298D01*
X0033704Y0050304D01*
X0033720Y0050314D01*
X0033739Y0050327D01*
X0033762Y0050343D01*
X0033791Y0050356D01*
X0033824Y0050372D01*
X0033859Y0050382D01*
X0033862D01*
X0033875Y0050385D01*
X0033895Y0050389D01*
X0033924Y0050395D01*
X0033953Y0050398D01*
X0033992Y0050405D01*
X0034031Y0050408D01*
X0034092D01*
X0034115Y0050405D01*
D02*
G37*
%LPC*%
G36*
X0031117Y0043008D02*
X0030990D01*
X0030942Y0043005D01*
X0030887D01*
X0030828Y0042999D01*
X0030770Y0042995D01*
X0030715Y0042989D01*
X0030708D01*
X0030692Y0042986D01*
X0030666Y0042979D01*
X0030634Y0042973D01*
X0030598Y0042963D01*
X0030560Y0042953D01*
X0030521Y0042940D01*
X0030485Y0042924D01*
X0030482Y0042921D01*
X0030472Y0042914D01*
X0030456Y0042905D01*
X0030436Y0042892D01*
X0030394Y0042853D01*
X0030372Y0042833D01*
X0030355Y0042808D01*
Y0042804D01*
X0030349Y0042795D01*
X0030343Y0042778D01*
X0030336Y0042759D01*
X0030330Y0042733D01*
X0030323Y0042704D01*
X0030320Y0042672D01*
X0030317Y0042636D01*
Y0042633D01*
Y0042623D01*
Y0042607D01*
X0030320Y0042587D01*
X0030326Y0042542D01*
X0030339Y0042497D01*
Y0042493D01*
X0030346Y0042487D01*
X0030349Y0042474D01*
X0030359Y0042461D01*
X0030381Y0042425D01*
X0030411Y0042393D01*
X0030414Y0042390D01*
X0030420Y0042387D01*
X0030430Y0042377D01*
X0030443Y0042367D01*
X0030479Y0042348D01*
X0030524Y0042325D01*
X0030527D01*
X0030537Y0042319D01*
X0030550Y0042315D01*
X0030566Y0042309D01*
X0030589Y0042302D01*
X0030611Y0042293D01*
X0030670Y0042280D01*
X0030673D01*
X0030683Y0042276D01*
X0030699Y0042273D01*
X0030721Y0042270D01*
X0030747Y0042263D01*
X0030777Y0042260D01*
X0030841Y0042254D01*
X0030857D01*
X0030877Y0042251D01*
X0030929D01*
X0030964Y0042247D01*
X0031117D01*
X0031155Y0042251D01*
X0031194Y0042254D01*
X0031278Y0042260D01*
X0031282D01*
X0031298Y0042263D01*
X0031317D01*
X0031343Y0042267D01*
X0031372Y0042270D01*
X0031402Y0042276D01*
X0031466Y0042289D01*
X0031470D01*
X0031479Y0042293D01*
X0031495Y0042296D01*
X0031515Y0042302D01*
X0031563Y0042315D01*
X0031609Y0042338D01*
X0031612D01*
X0031619Y0042344D01*
X0031631Y0042351D01*
X0031644Y0042357D01*
X0031677Y0042380D01*
X0031709Y0042409D01*
X0031712Y0042412D01*
X0031716Y0042416D01*
X0031722Y0042425D01*
X0031732Y0042438D01*
X0031748Y0042468D01*
X0031764Y0042506D01*
Y0042510D01*
X0031767Y0042516D01*
X0031771Y0042526D01*
X0031774Y0042542D01*
X0031780Y0042578D01*
X0031784Y0042626D01*
Y0042633D01*
Y0042646D01*
X0031780Y0042668D01*
X0031777Y0042694D01*
X0031771Y0042727D01*
X0031758Y0042759D01*
X0031745Y0042791D01*
X0031725Y0042821D01*
X0031722Y0042824D01*
X0031716Y0042833D01*
X0031703Y0042846D01*
X0031687Y0042863D01*
X0031664Y0042882D01*
X0031638Y0042901D01*
X0031609Y0042921D01*
X0031573Y0042937D01*
X0031570Y0042940D01*
X0031557Y0042944D01*
X0031534Y0042950D01*
X0031508Y0042960D01*
X0031476Y0042969D01*
X0031434Y0042979D01*
X0031392Y0042989D01*
X0031343Y0042995D01*
X0031337D01*
X0031321Y0042999D01*
X0031295D01*
X0031259Y0043002D01*
X0031217Y0043005D01*
X0031168D01*
X0031117Y0043008D01*
D02*
G37*
G36*
X0033811Y0048721D02*
X0033684D01*
X0033636Y0048717D01*
X0033581D01*
X0033522Y0048711D01*
X0033464Y0048708D01*
X0033409Y0048701D01*
X0033403D01*
X0033386Y0048698D01*
X0033360Y0048692D01*
X0033328Y0048685D01*
X0033292Y0048675D01*
X0033254Y0048666D01*
X0033215Y0048653D01*
X0033179Y0048637D01*
X0033176Y0048633D01*
X0033166Y0048627D01*
X0033150Y0048617D01*
X0033130Y0048604D01*
X0033088Y0048565D01*
X0033066Y0048546D01*
X0033049Y0048520D01*
Y0048517D01*
X0033043Y0048507D01*
X0033037Y0048491D01*
X0033030Y0048471D01*
X0033024Y0048445D01*
X0033017Y0048416D01*
X0033014Y0048384D01*
X0033011Y0048348D01*
Y0048345D01*
Y0048335D01*
Y0048319D01*
X0033014Y0048300D01*
X0033020Y0048254D01*
X0033033Y0048209D01*
Y0048206D01*
X0033040Y0048199D01*
X0033043Y0048186D01*
X0033053Y0048173D01*
X0033075Y0048138D01*
X0033105Y0048105D01*
X0033108Y0048102D01*
X0033114Y0048099D01*
X0033124Y0048089D01*
X0033137Y0048080D01*
X0033173Y0048060D01*
X0033218Y0048037D01*
X0033221D01*
X0033231Y0048031D01*
X0033244Y0048028D01*
X0033260Y0048021D01*
X0033283Y0048015D01*
X0033305Y0048005D01*
X0033364Y0047992D01*
X0033367D01*
X0033377Y0047989D01*
X0033393Y0047986D01*
X0033415Y0047982D01*
X0033441Y0047976D01*
X0033471Y0047973D01*
X0033535Y0047966D01*
X0033551D01*
X0033571Y0047963D01*
X0033623D01*
X0033658Y0047960D01*
X0033811D01*
X0033849Y0047963D01*
X0033888Y0047966D01*
X0033972Y0047973D01*
X0033976D01*
X0033992Y0047976D01*
X0034011D01*
X0034037Y0047979D01*
X0034066Y0047982D01*
X0034096Y0047989D01*
X0034160Y0048002D01*
X0034164D01*
X0034173Y0048005D01*
X0034189Y0048008D01*
X0034209Y0048015D01*
X0034257Y0048028D01*
X0034303Y0048050D01*
X0034306D01*
X0034313Y0048057D01*
X0034325Y0048063D01*
X0034338Y0048070D01*
X0034371Y0048092D01*
X0034403Y0048122D01*
X0034406Y0048125D01*
X0034410Y0048128D01*
X0034416Y0048138D01*
X0034426Y0048151D01*
X0034442Y0048180D01*
X0034458Y0048219D01*
Y0048222D01*
X0034461Y0048228D01*
X0034465Y0048238D01*
X0034468Y0048254D01*
X0034474Y0048290D01*
X0034478Y0048339D01*
Y0048345D01*
Y0048358D01*
X0034474Y0048381D01*
X0034471Y0048407D01*
X0034465Y0048439D01*
X0034452Y0048471D01*
X0034439Y0048504D01*
X0034419Y0048533D01*
X0034416Y0048536D01*
X0034410Y0048546D01*
X0034397Y0048559D01*
X0034381Y0048575D01*
X0034358Y0048594D01*
X0034332Y0048614D01*
X0034303Y0048633D01*
X0034267Y0048649D01*
X0034264Y0048653D01*
X0034251Y0048656D01*
X0034228Y0048662D01*
X0034202Y0048672D01*
X0034170Y0048682D01*
X0034128Y0048692D01*
X0034086Y0048701D01*
X0034037Y0048708D01*
X0034031D01*
X0034015Y0048711D01*
X0033989D01*
X0033953Y0048714D01*
X0033911Y0048717D01*
X0033862D01*
X0033811Y0048721D01*
D02*
G37*
G36*
X0033639Y0047221D02*
X0033574D01*
X0033532Y0047218D01*
X0033483Y0047215D01*
X0033435Y0047212D01*
X0033383Y0047205D01*
X0033334Y0047199D01*
X0033328D01*
X0033315Y0047195D01*
X0033292Y0047189D01*
X0033266Y0047182D01*
X0033234Y0047173D01*
X0033202Y0047163D01*
X0033169Y0047150D01*
X0033140Y0047134D01*
X0033137Y0047131D01*
X0033127Y0047124D01*
X0033118Y0047114D01*
X0033101Y0047101D01*
X0033066Y0047069D01*
X0033049Y0047046D01*
X0033037Y0047024D01*
Y0047021D01*
X0033033Y0047011D01*
X0033027Y0046998D01*
X0033024Y0046978D01*
X0033017Y0046956D01*
X0033011Y0046930D01*
X0033007Y0046868D01*
Y0046865D01*
Y0046852D01*
X0033011Y0046836D01*
Y0046813D01*
X0033020Y0046765D01*
X0033040Y0046713D01*
Y0046710D01*
X0033046Y0046703D01*
X0033053Y0046690D01*
X0033062Y0046674D01*
X0033092Y0046642D01*
X0033127Y0046606D01*
X0033130Y0046603D01*
X0033137Y0046600D01*
X0033150Y0046590D01*
X0033166Y0046580D01*
X0033186Y0046570D01*
X0033208Y0046561D01*
X0033257Y0046541D01*
X0033260D01*
X0033270Y0046538D01*
X0033283Y0046535D01*
X0033302Y0046528D01*
X0033325Y0046525D01*
X0033347Y0046522D01*
X0033403Y0046519D01*
X0033432D01*
X0033451Y0046522D01*
X0033500Y0046525D01*
X0033548Y0046535D01*
X0033551D01*
X0033561Y0046538D01*
X0033571Y0046541D01*
X0033587Y0046548D01*
X0033626Y0046564D01*
X0033662Y0046590D01*
X0033665Y0046593D01*
X0033668Y0046596D01*
X0033678Y0046606D01*
X0033687Y0046616D01*
X0033710Y0046651D01*
X0033733Y0046693D01*
Y0046697D01*
X0033736Y0046703D01*
X0033743Y0046716D01*
X0033746Y0046736D01*
X0033752Y0046758D01*
X0033756Y0046784D01*
X0033759Y0046813D01*
Y0046846D01*
Y0046849D01*
Y0046855D01*
Y0046865D01*
Y0046878D01*
X0033756Y0046910D01*
X0033749Y0046949D01*
Y0046953D01*
X0033746Y0046959D01*
Y0046969D01*
X0033743Y0046982D01*
X0033733Y0047014D01*
X0033723Y0047050D01*
Y0047053D01*
X0033720Y0047059D01*
X0033717Y0047066D01*
X0033713Y0047079D01*
X0033700Y0047111D01*
X0033684Y0047144D01*
Y0047147D01*
X0033681Y0047150D01*
X0033671Y0047169D01*
X0033658Y0047195D01*
X0033639Y0047221D01*
D02*
G37*
G36*
X0033451Y0042966D02*
Y0042377D01*
X0034445D01*
Y0042380D01*
X0033451Y0042966D01*
D02*
G37*
G36*
X0033811Y0040573D02*
X0033684D01*
X0033636Y0040569D01*
X0033581D01*
X0033522Y0040563D01*
X0033464Y0040560D01*
X0033409Y0040553D01*
X0033403D01*
X0033386Y0040550D01*
X0033360Y0040544D01*
X0033328Y0040537D01*
X0033292Y0040527D01*
X0033254Y0040518D01*
X0033215Y0040505D01*
X0033179Y0040488D01*
X0033176Y0040485D01*
X0033166Y0040479D01*
X0033150Y0040469D01*
X0033130Y0040456D01*
X0033088Y0040417D01*
X0033066Y0040398D01*
X0033049Y0040372D01*
Y0040369D01*
X0033043Y0040359D01*
X0033037Y0040343D01*
X0033030Y0040323D01*
X0033024Y0040297D01*
X0033017Y0040268D01*
X0033014Y0040236D01*
X0033011Y0040200D01*
Y0040197D01*
Y0040187D01*
Y0040171D01*
X0033014Y0040152D01*
X0033020Y0040106D01*
X0033033Y0040061D01*
Y0040058D01*
X0033040Y0040051D01*
X0033043Y0040038D01*
X0033053Y0040025D01*
X0033075Y0039990D01*
X0033105Y0039957D01*
X0033108Y0039954D01*
X0033114Y0039951D01*
X0033124Y0039941D01*
X0033137Y0039931D01*
X0033173Y0039912D01*
X0033218Y0039889D01*
X0033221D01*
X0033231Y0039883D01*
X0033244Y0039880D01*
X0033260Y0039873D01*
X0033283Y0039867D01*
X0033305Y0039857D01*
X0033364Y0039844D01*
X0033367D01*
X0033377Y0039841D01*
X0033393Y0039838D01*
X0033415Y0039834D01*
X0033441Y0039828D01*
X0033471Y0039825D01*
X0033535Y0039818D01*
X0033551D01*
X0033571Y0039815D01*
X0033623D01*
X0033658Y0039812D01*
X0033811D01*
X0033849Y0039815D01*
X0033888Y0039818D01*
X0033972Y0039825D01*
X0033976D01*
X0033992Y0039828D01*
X0034011D01*
X0034037Y0039831D01*
X0034066Y0039834D01*
X0034096Y0039841D01*
X0034160Y0039854D01*
X0034164D01*
X0034173Y0039857D01*
X0034189Y0039860D01*
X0034209Y0039867D01*
X0034257Y0039880D01*
X0034303Y0039902D01*
X0034306D01*
X0034313Y0039909D01*
X0034325Y0039915D01*
X0034338Y0039922D01*
X0034371Y0039944D01*
X0034403Y0039974D01*
X0034406Y0039977D01*
X0034410Y0039980D01*
X0034416Y0039990D01*
X0034426Y0040003D01*
X0034442Y0040032D01*
X0034458Y0040071D01*
Y0040074D01*
X0034461Y0040080D01*
X0034465Y0040090D01*
X0034468Y0040106D01*
X0034474Y0040142D01*
X0034478Y0040191D01*
Y0040197D01*
Y0040210D01*
X0034474Y0040233D01*
X0034471Y0040259D01*
X0034465Y0040291D01*
X0034452Y0040323D01*
X0034439Y0040356D01*
X0034419Y0040385D01*
X0034416Y0040388D01*
X0034410Y0040398D01*
X0034397Y0040411D01*
X0034381Y0040427D01*
X0034358Y0040446D01*
X0034332Y0040466D01*
X0034303Y0040485D01*
X0034267Y0040501D01*
X0034264Y0040505D01*
X0034251Y0040508D01*
X0034228Y0040514D01*
X0034202Y0040524D01*
X0034170Y0040534D01*
X0034128Y0040544D01*
X0034086Y0040553D01*
X0034037Y0040560D01*
X0034031D01*
X0034015Y0040563D01*
X0033989D01*
X0033953Y0040566D01*
X0033911Y0040569D01*
X0033862D01*
X0033811Y0040573D01*
D02*
G37*
G36*
X0034092Y0050165D02*
X0034063D01*
X0034040Y0050162D01*
X0033992Y0050159D01*
X0033940Y0050149D01*
X0033937D01*
X0033930Y0050146D01*
X0033917Y0050142D01*
X0033901Y0050136D01*
X0033862Y0050120D01*
X0033824Y0050094D01*
X0033820Y0050091D01*
X0033817Y0050087D01*
X0033807Y0050078D01*
X0033798Y0050068D01*
X0033775Y0050036D01*
X0033752Y0049993D01*
Y0049990D01*
X0033749Y0049981D01*
X0033746Y0049968D01*
X0033739Y0049948D01*
X0033736Y0049925D01*
X0033730Y0049900D01*
X0033726Y0049867D01*
Y0049835D01*
Y0049832D01*
Y0049815D01*
X0033730Y0049796D01*
Y0049770D01*
X0033733Y0049741D01*
X0033739Y0049705D01*
X0033756Y0049634D01*
Y0049631D01*
X0033762Y0049618D01*
X0033768Y0049598D01*
X0033778Y0049576D01*
X0033791Y0049547D01*
X0033804Y0049521D01*
X0033840Y0049462D01*
X0033901D01*
X0033943Y0049466D01*
X0033992Y0049469D01*
X0034040Y0049472D01*
X0034092Y0049479D01*
X0034141Y0049488D01*
X0034147D01*
X0034160Y0049492D01*
X0034183Y0049498D01*
X0034212Y0049504D01*
X0034245Y0049514D01*
X0034277Y0049527D01*
X0034309Y0049543D01*
X0034338Y0049560D01*
X0034342Y0049563D01*
X0034351Y0049566D01*
X0034364Y0049579D01*
X0034381Y0049592D01*
X0034419Y0049628D01*
X0034436Y0049647D01*
X0034449Y0049673D01*
X0034452Y0049676D01*
X0034455Y0049686D01*
X0034461Y0049699D01*
X0034468Y0049715D01*
X0034474Y0049738D01*
X0034478Y0049764D01*
X0034484Y0049793D01*
Y0049825D01*
Y0049828D01*
Y0049841D01*
X0034481Y0049857D01*
Y0049877D01*
X0034468Y0049929D01*
X0034461Y0049955D01*
X0034449Y0049981D01*
Y0049984D01*
X0034442Y0049990D01*
X0034436Y0050003D01*
X0034426Y0050019D01*
X0034397Y0050052D01*
X0034361Y0050087D01*
X0034358D01*
X0034351Y0050094D01*
X0034338Y0050100D01*
X0034325Y0050110D01*
X0034306Y0050120D01*
X0034283Y0050129D01*
X0034235Y0050146D01*
X0034232D01*
X0034222Y0050149D01*
X0034209Y0050152D01*
X0034193Y0050155D01*
X0034170Y0050159D01*
X0034147Y0050162D01*
X0034092Y0050165D01*
D02*
G37*
%LPD*%
D18*
X0035560Y0060579D02*
G03*
X0036576Y0061595I0000000J0001016D01*
G01*
X0034544D02*
G03*
X0035560Y0060579I0001016J0000000D01*
G01*
X0034290Y0061595D02*
X0034544D01*
X0036576D02*
X0041910D01*
X0029210D02*
X0034290D01*
X0029210Y0060960D02*
Y0061595D01*
Y0027305D02*
Y0060960D01*
Y0027305D02*
X0041910D01*
Y0061595D01*
M02*
