G04*
G04 #@! TF.GenerationSoftware,Altium Limited,CircuitStudio,1.5.1 (13)*
G04*
G04 Layer_Color=13948096*
%FSAX43Y43*%
%MOMM*%
G71*
G01*
G75*
%ADD28C,0.250*%
%ADD29C,0.600*%
%ADD30C,0.200*%
%ADD31C,0.300*%
D28*
X0040510Y0038800D02*
G03*
X0040510Y0038800I-0000125J0000000D01*
G01*
X0037485Y0055438D02*
G03*
X0037485Y0055438I-0000125J0000000D01*
G01*
D29*
X0039210Y0041100D02*
G03*
X0039210Y0041100I-0000300J0000000D01*
G01*
D30*
X0035014Y0032406D02*
X0036314D01*
X0031210Y0040100D02*
X0039910D01*
X0031210Y0048800D02*
X0039910D01*
Y0040100D02*
Y0048800D01*
X0031210Y0040100D02*
Y0048800D01*
X0031608Y0054615D02*
X0032908D01*
X0038212D02*
X0039512D01*
X0034010Y0057088D02*
X0034860D01*
X0034010Y0056588D02*
Y0057088D01*
X0036260D02*
X0037110D01*
Y0056588D02*
Y0057088D01*
X0036630Y0030878D02*
X0036830Y0030678D01*
X0037230D01*
X0037430Y0030878D01*
Y0031677D01*
X0037230Y0031877D01*
X0036830D01*
X0036630Y0031677D01*
X0036230Y0030878D02*
X0036030Y0030678D01*
X0035630D01*
X0035430Y0030878D01*
Y0031078D01*
X0035630Y0031278D01*
X0035830D01*
X0035630D01*
X0035430Y0031478D01*
Y0031677D01*
X0035630Y0031877D01*
X0036030D01*
X0036230Y0031677D01*
X0032452Y0059766D02*
X0032652Y0059966D01*
X0033052D01*
X0033252Y0059766D01*
Y0058966D01*
X0033052Y0058766D01*
X0032652D01*
X0032452Y0058966D01*
X0031253Y0058766D02*
X0032052D01*
X0031253Y0059566D01*
Y0059766D01*
X0031453Y0059966D01*
X0031852D01*
X0032052Y0059766D01*
X0038894Y0059773D02*
X0039094Y0059973D01*
X0039494D01*
X0039694Y0059773D01*
Y0058973D01*
X0039494Y0058773D01*
X0039094D01*
X0038894Y0058973D01*
X0038494Y0058773D02*
X0038094D01*
X0038294D01*
Y0059973D01*
X0038494Y0059773D01*
X0039708Y0037441D02*
Y0036441D01*
X0039508Y0036241D01*
X0039108D01*
X0038908Y0036441D01*
Y0037441D01*
X0038508Y0036241D02*
X0038108D01*
X0038308D01*
Y0037441D01*
X0038508Y0037241D01*
X0036570Y0059963D02*
Y0058964D01*
X0036371Y0058764D01*
X0035971D01*
X0035771Y0058964D01*
Y0059963D01*
X0034571Y0058764D02*
X0035371D01*
X0034571Y0059563D01*
Y0059763D01*
X0034771Y0059963D01*
X0035171D01*
X0035371Y0059763D01*
X0037732Y0053815D02*
X0038398D01*
Y0053315D01*
X0038065Y0053481D01*
X0037898D01*
X0037732Y0053315D01*
Y0052982D01*
X0037898Y0052815D01*
X0038232D01*
X0038398Y0052982D01*
X0037399Y0053815D02*
Y0053148D01*
X0037065Y0052815D01*
X0036732Y0053148D01*
Y0053815D01*
X0032050Y0053805D02*
X0031384D01*
X0031717D01*
Y0052805D01*
X0031050Y0053805D02*
Y0052805D01*
X0030550D01*
X0030384Y0052972D01*
Y0053638D01*
X0030550Y0053805D01*
X0031050D01*
X0029551D02*
X0029884D01*
X0030051Y0053638D01*
Y0052972D01*
X0029884Y0052805D01*
X0029551D01*
X0029384Y0052972D01*
Y0053638D01*
X0029551Y0053805D01*
X0034750Y0037630D02*
X0034084D01*
X0034417D01*
Y0036630D01*
X0033750Y0037630D02*
Y0036630D01*
X0033250D01*
X0033084Y0036797D01*
Y0037463D01*
X0033250Y0037630D01*
X0033750D01*
X0032751D02*
X0032417D01*
X0032584D01*
Y0036630D01*
X0032751D01*
X0032417D01*
X0034955Y0031923D02*
X0034289D01*
X0034622D01*
Y0030923D01*
X0033956D02*
Y0031923D01*
X0033622Y0031590D01*
X0033289Y0031923D01*
Y0030923D01*
X0032289Y0031757D02*
X0032456Y0031923D01*
X0032789D01*
X0032956Y0031757D01*
Y0031590D01*
X0032789Y0031423D01*
X0032456D01*
X0032289Y0031257D01*
Y0031090D01*
X0032456Y0030923D01*
X0032789D01*
X0032956Y0031090D01*
X0031650Y0037630D02*
X0030984D01*
X0031317D01*
Y0036630D01*
X0029984Y0037463D02*
X0030150Y0037630D01*
X0030484D01*
X0030650Y0037463D01*
Y0036797D01*
X0030484Y0036630D01*
X0030150D01*
X0029984Y0036797D01*
X0029651Y0037630D02*
Y0036630D01*
Y0036963D01*
X0028984Y0037630D01*
X0029484Y0037130D01*
X0028984Y0036630D01*
X0030884Y0031738D02*
X0031050Y0031905D01*
X0031383D01*
X0031550Y0031738D01*
Y0031072D01*
X0031383Y0030905D01*
X0031050D01*
X0030884Y0031072D01*
Y0031405D01*
X0031217D01*
X0030550Y0030905D02*
Y0031905D01*
X0029884Y0030905D01*
Y0031905D01*
X0029551D02*
Y0030905D01*
X0029051D01*
X0028884Y0031072D01*
Y0031738D01*
X0029051Y0031905D01*
X0029551D01*
X0039823Y0035034D02*
X0039656Y0035200D01*
X0039323D01*
X0039156Y0035034D01*
Y0034867D01*
X0039323Y0034701D01*
X0039489D01*
X0039323D01*
X0039156Y0034534D01*
Y0034367D01*
X0039323Y0034201D01*
X0039656D01*
X0039823Y0034367D01*
X0038823Y0035200D02*
Y0034534D01*
X0038490Y0034201D01*
X0038156Y0034534D01*
Y0035200D01*
X0037157D02*
X0037490Y0035034D01*
X0037823Y0034701D01*
Y0034367D01*
X0037657Y0034201D01*
X0037323D01*
X0037157Y0034367D01*
Y0034534D01*
X0037323Y0034701D01*
X0037823D01*
D31*
X0041326Y0027924D02*
Y0029124D01*
X0040427D01*
X0040127Y0028824D01*
Y0027924D01*
X0038627D02*
X0039227D01*
X0039527Y0028224D01*
Y0028824D01*
X0039227Y0029124D01*
X0038627D01*
X0038327Y0028824D01*
Y0028524D01*
X0039527D01*
X0037428Y0029124D02*
X0036828D01*
X0036528Y0028824D01*
Y0027924D01*
X0037428D01*
X0037727Y0028224D01*
X0037428Y0028524D01*
X0036528D01*
X0035628Y0029424D02*
Y0029124D01*
X0035928D01*
X0035328D01*
X0035628D01*
Y0028224D01*
X0035328Y0027924D01*
X0034429D02*
Y0029723D01*
X0033529D01*
X0033229Y0029424D01*
Y0028824D01*
X0033529Y0028524D01*
X0034429D01*
X0032629Y0029723D02*
Y0027924D01*
X0031430D01*
X0030830D02*
Y0029124D01*
X0030230Y0029723D01*
X0029630Y0029124D01*
Y0027924D01*
Y0028824D01*
X0030830D01*
M02*
